<?xml version="1.0" standalone="no"?>
<!DOCTYPE svg PUBLIC "-//W3C//DTD SVG 20010904//EN"
 "http://www.w3.org/TR/2001/REC-SVG-20010904/DTD/svg10.dtd">
<svg version="1.0" xmlns="http://www.w3.org/2000/svg"
 width="500.000000pt" height="500.000000pt" viewBox="0 0 500.000000 500.000000"
 preserveAspectRatio="xMidYMid meet">

<g transform="translate(0.000000,500.000000) scale(0.100000,-0.100000)"
fill="#000000" stroke="none">
<path d="M1000 3749 c0 -6 15 -37 34 -68 18 -31 45 -76 59 -101 50 -91 1069
-1855 1073 -1859 9 -9 34 25 87 119 30 52 203 353 385 669 183 315 329 578
326 582 -3 5 -124 9 -269 9 l-265 0 -17 -27 c-10 -15 -65 -110 -123 -211 -58
-101 -109 -185 -114 -186 -8 -1 -91 138 -264 439 -41 72 -83 145 -93 163 -11
17 -27 47 -38 65 -10 17 -39 67 -65 110 -25 43 -46 80 -46 82 0 3 -30 54 -66
115 l-65 110 -270 0 c-192 0 -269 -3 -269 -11z"/>
<path d="M2797 3738 c-24 -39 -152 -258 -205 -352 -28 -49 -49 -93 -46 -98 3
-4 171 -8 375 -8 203 0 369 -3 369 -8 0 -4 -55 -102 -121 -217 -67 -116 -132
-228 -144 -250 -24 -41 -154 -266 -185 -320 -10 -16 -43 -75 -75 -130 -31 -55
-65 -113 -75 -130 -155 -267 -300 -518 -300 -520 0 -1 -22 -40 -50 -86 -27
-46 -50 -91 -50 -99 0 -14 22 -56 77 -150 18 -31 87 -151 158 -275 12 -21 27
-40 31 -42 8 -2 554 936 1049 1802 13 22 56 96 95 165 40 69 141 242 223 385
83 143 161 278 174 300 12 22 23 43 23 48 0 4 -295 7 -655 7 l-655 0 -13 -22z"/>
</g>
</svg>
